<mxfile host="app.diagrams.net" modified="2020-10-28T04:46:47.876Z" agent="5.0 (Windows NT 10.0; Win64; x64) AppleWebKit/537.36 (KHTML, like Gecko) Chrome/86.0.4240.111 Safari/537.36" etag="ha-9-McUZagKHvm_loZh" version="13.8.5" type="github">
  <diagram id="wjy0S2iWsxzNMesYwqDD" name="Checking Authen Status">
    <mxGraphModel dx="1038" dy="548" grid="1" gridSize="10" guides="1" tooltips="1" connect="1" arrows="1" fold="1" page="1" pageScale="1" pageWidth="827" pageHeight="1169" math="0" shadow="0">
      <root>
        <mxCell id="0" />
        <mxCell id="1" parent="0" />
        <mxCell id="37zY8yhrFcR8cuDTryZy-6" value="" style="edgeStyle=orthogonalEdgeStyle;rounded=0;orthogonalLoop=1;jettySize=auto;html=1;" parent="1" source="37zY8yhrFcR8cuDTryZy-1" target="37zY8yhrFcR8cuDTryZy-2" edge="1">
          <mxGeometry relative="1" as="geometry" />
        </mxCell>
        <mxCell id="37zY8yhrFcR8cuDTryZy-1" value="Index.html" style="shape=document;whiteSpace=wrap;html=1;boundedLbl=1;" parent="1" vertex="1">
          <mxGeometry x="40" y="80" width="120" height="80" as="geometry" />
        </mxCell>
        <mxCell id="37zY8yhrFcR8cuDTryZy-7" value="" style="edgeStyle=orthogonalEdgeStyle;rounded=0;orthogonalLoop=1;jettySize=auto;html=1;" parent="1" source="37zY8yhrFcR8cuDTryZy-2" target="37zY8yhrFcR8cuDTryZy-3" edge="1">
          <mxGeometry relative="1" as="geometry" />
        </mxCell>
        <mxCell id="37zY8yhrFcR8cuDTryZy-2" value="&lt;b&gt;Start&lt;/b&gt;" style="rounded=1;whiteSpace=wrap;html=1;fillColor=#f8cecc;strokeColor=#b85450;" parent="1" vertex="1">
          <mxGeometry x="200" y="90" width="120" height="60" as="geometry" />
        </mxCell>
        <mxCell id="37zY8yhrFcR8cuDTryZy-9" value="" style="edgeStyle=orthogonalEdgeStyle;rounded=0;orthogonalLoop=1;jettySize=auto;html=1;" parent="1" source="37zY8yhrFcR8cuDTryZy-3" target="37zY8yhrFcR8cuDTryZy-8" edge="1">
          <mxGeometry relative="1" as="geometry" />
        </mxCell>
        <mxCell id="37zY8yhrFcR8cuDTryZy-3" value="Check Cookies" style="rounded=0;whiteSpace=wrap;html=1;fillColor=#d5e8d4;strokeColor=#82b366;" parent="1" vertex="1">
          <mxGeometry x="360" y="90" width="120" height="60" as="geometry" />
        </mxCell>
        <mxCell id="37zY8yhrFcR8cuDTryZy-12" value="YES" style="edgeStyle=orthogonalEdgeStyle;rounded=0;orthogonalLoop=1;jettySize=auto;html=1;" parent="1" source="37zY8yhrFcR8cuDTryZy-8" target="37zY8yhrFcR8cuDTryZy-11" edge="1">
          <mxGeometry relative="1" as="geometry" />
        </mxCell>
        <mxCell id="37zY8yhrFcR8cuDTryZy-14" value="NO" style="edgeStyle=orthogonalEdgeStyle;rounded=0;orthogonalLoop=1;jettySize=auto;html=1;" parent="1" source="37zY8yhrFcR8cuDTryZy-8" target="37zY8yhrFcR8cuDTryZy-13" edge="1">
          <mxGeometry relative="1" as="geometry">
            <Array as="points">
              <mxPoint x="560" y="180" />
              <mxPoint x="300" y="180" />
            </Array>
          </mxGeometry>
        </mxCell>
        <mxCell id="37zY8yhrFcR8cuDTryZy-8" value="If cookied" style="rhombus;whiteSpace=wrap;html=1;fillColor=#fff2cc;strokeColor=#d6b656;" parent="1" vertex="1">
          <mxGeometry x="520" y="80" width="80" height="80" as="geometry" />
        </mxCell>
        <mxCell id="37zY8yhrFcR8cuDTryZy-10" value="Checking Authen Status" style="text;html=1;strokeColor=none;fillColor=none;align=center;verticalAlign=middle;whiteSpace=wrap;rounded=0;fontSize=17;fontStyle=1" parent="1" vertex="1">
          <mxGeometry x="340" y="40" width="140" height="20" as="geometry" />
        </mxCell>
        <mxCell id="2Tk2G13kBau0TGF2Ed2G-37" value="" style="edgeStyle=orthogonalEdgeStyle;rounded=0;orthogonalLoop=1;jettySize=auto;html=1;fontSize=12;" edge="1" parent="1" source="37zY8yhrFcR8cuDTryZy-11" target="2Tk2G13kBau0TGF2Ed2G-14">
          <mxGeometry relative="1" as="geometry" />
        </mxCell>
        <mxCell id="37zY8yhrFcR8cuDTryZy-11" value="Display : Signed In" style="rounded=0;whiteSpace=wrap;html=1;fillColor=#d5e8d4;strokeColor=#82b366;" parent="1" vertex="1">
          <mxGeometry x="650" y="90" width="120" height="60" as="geometry" />
        </mxCell>
        <mxCell id="2Tk2G13kBau0TGF2Ed2G-8" style="edgeStyle=orthogonalEdgeStyle;rounded=0;orthogonalLoop=1;jettySize=auto;html=1;entryX=0;entryY=0.5;entryDx=0;entryDy=0;fontSize=12;" edge="1" parent="1" source="37zY8yhrFcR8cuDTryZy-13" target="2Tk2G13kBau0TGF2Ed2G-1">
          <mxGeometry relative="1" as="geometry" />
        </mxCell>
        <mxCell id="37zY8yhrFcR8cuDTryZy-13" value="Display : Signed Out" style="rounded=0;whiteSpace=wrap;html=1;fillColor=#e1d5e7;strokeColor=#9673a6;" parent="1" vertex="1">
          <mxGeometry x="240" y="210" width="120" height="60" as="geometry" />
        </mxCell>
        <mxCell id="37zY8yhrFcR8cuDTryZy-20" value="" style="edgeStyle=orthogonalEdgeStyle;rounded=0;orthogonalLoop=1;jettySize=auto;html=1;" parent="1" source="37zY8yhrFcR8cuDTryZy-17" target="37zY8yhrFcR8cuDTryZy-18" edge="1">
          <mxGeometry relative="1" as="geometry" />
        </mxCell>
        <mxCell id="37zY8yhrFcR8cuDTryZy-17" value="Check Verified" style="rounded=0;whiteSpace=wrap;html=1;fillColor=#d5e8d4;strokeColor=#82b366;" parent="1" vertex="1">
          <mxGeometry x="390" y="210" width="120" height="60" as="geometry" />
        </mxCell>
        <mxCell id="37zY8yhrFcR8cuDTryZy-22" value="YES" style="edgeStyle=orthogonalEdgeStyle;rounded=0;orthogonalLoop=1;jettySize=auto;html=1;" parent="1" source="37zY8yhrFcR8cuDTryZy-18" target="37zY8yhrFcR8cuDTryZy-21" edge="1">
          <mxGeometry relative="1" as="geometry" />
        </mxCell>
        <mxCell id="37zY8yhrFcR8cuDTryZy-24" value="NO" style="edgeStyle=orthogonalEdgeStyle;rounded=0;orthogonalLoop=1;jettySize=auto;html=1;" parent="1" source="37zY8yhrFcR8cuDTryZy-18" target="37zY8yhrFcR8cuDTryZy-23" edge="1">
          <mxGeometry relative="1" as="geometry" />
        </mxCell>
        <mxCell id="37zY8yhrFcR8cuDTryZy-18" value="If verified" style="rhombus;whiteSpace=wrap;html=1;fillColor=#fff2cc;strokeColor=#d6b656;" parent="1" vertex="1">
          <mxGeometry x="410" y="320" width="80" height="80" as="geometry" />
        </mxCell>
        <mxCell id="2Tk2G13kBau0TGF2Ed2G-10" value="" style="edgeStyle=orthogonalEdgeStyle;rounded=0;orthogonalLoop=1;jettySize=auto;html=1;fontSize=12;" edge="1" parent="1" source="37zY8yhrFcR8cuDTryZy-21" target="2Tk2G13kBau0TGF2Ed2G-9">
          <mxGeometry relative="1" as="geometry" />
        </mxCell>
        <mxCell id="37zY8yhrFcR8cuDTryZy-21" value="Display : Verified Icon" style="rounded=0;whiteSpace=wrap;html=1;fillColor=#d5e8d4;strokeColor=#82b366;" parent="1" vertex="1">
          <mxGeometry x="390" y="450" width="120" height="60" as="geometry" />
        </mxCell>
        <mxCell id="2Tk2G13kBau0TGF2Ed2G-4" value="" style="edgeStyle=orthogonalEdgeStyle;rounded=0;orthogonalLoop=1;jettySize=auto;html=1;fontSize=12;" edge="1" parent="1" source="37zY8yhrFcR8cuDTryZy-23" target="2Tk2G13kBau0TGF2Ed2G-1">
          <mxGeometry relative="1" as="geometry" />
        </mxCell>
        <mxCell id="37zY8yhrFcR8cuDTryZy-23" value="&lt;span&gt;Display : Unverified Icon&lt;/span&gt;" style="rounded=0;whiteSpace=wrap;html=1;fillColor=#e1d5e7;strokeColor=#9673a6;" parent="1" vertex="1">
          <mxGeometry x="240" y="330" width="120" height="60" as="geometry" />
        </mxCell>
        <mxCell id="2Tk2G13kBau0TGF2Ed2G-1" value="&lt;b&gt;End w/ False&lt;/b&gt;" style="rounded=1;whiteSpace=wrap;html=1;fontSize=12;fillColor=#f8cecc;strokeColor=#b85450;" vertex="1" parent="1">
          <mxGeometry x="110" y="450" width="120" height="60" as="geometry" />
        </mxCell>
        <mxCell id="2Tk2G13kBau0TGF2Ed2G-6" value="Checking&lt;br&gt;Shop Status" style="text;html=1;strokeColor=none;fillColor=none;align=center;verticalAlign=middle;whiteSpace=wrap;rounded=0;fontSize=17;fontStyle=1" vertex="1" parent="1">
          <mxGeometry x="340" y="565" width="140" height="20" as="geometry" />
        </mxCell>
        <mxCell id="2Tk2G13kBau0TGF2Ed2G-9" value="&lt;b&gt;End w/ True&lt;/b&gt;" style="rounded=1;whiteSpace=wrap;html=1;fontSize=12;fillColor=#dae8fc;strokeColor=#6c8ebf;" vertex="1" parent="1">
          <mxGeometry x="230" y="450" width="120" height="60" as="geometry" />
        </mxCell>
        <mxCell id="2Tk2G13kBau0TGF2Ed2G-13" value="" style="edgeStyle=orthogonalEdgeStyle;rounded=0;orthogonalLoop=1;jettySize=auto;html=1;fontSize=12;" edge="1" parent="1" source="2Tk2G13kBau0TGF2Ed2G-11" target="2Tk2G13kBau0TGF2Ed2G-12">
          <mxGeometry relative="1" as="geometry" />
        </mxCell>
        <mxCell id="2Tk2G13kBau0TGF2Ed2G-11" value="End w/ True &lt;br&gt;of Authen Status" style="triangle;whiteSpace=wrap;html=1;fontSize=12;align=left;" vertex="1" parent="1">
          <mxGeometry x="40" y="580" width="90" height="115" as="geometry" />
        </mxCell>
        <mxCell id="2Tk2G13kBau0TGF2Ed2G-18" value="" style="edgeStyle=orthogonalEdgeStyle;rounded=0;orthogonalLoop=1;jettySize=auto;html=1;fontSize=12;" edge="1" parent="1" source="2Tk2G13kBau0TGF2Ed2G-12" target="2Tk2G13kBau0TGF2Ed2G-17">
          <mxGeometry relative="1" as="geometry" />
        </mxCell>
        <mxCell id="2Tk2G13kBau0TGF2Ed2G-12" value="&lt;b&gt;Start&lt;/b&gt;" style="rounded=1;whiteSpace=wrap;html=1;fillColor=#f8cecc;strokeColor=#b85450;" vertex="1" parent="1">
          <mxGeometry x="170" y="607.5" width="120" height="60" as="geometry" />
        </mxCell>
        <mxCell id="2Tk2G13kBau0TGF2Ed2G-16" value="" style="edgeStyle=orthogonalEdgeStyle;rounded=0;orthogonalLoop=1;jettySize=auto;html=1;fontSize=12;" edge="1" parent="1" source="2Tk2G13kBau0TGF2Ed2G-14" target="2Tk2G13kBau0TGF2Ed2G-15">
          <mxGeometry relative="1" as="geometry" />
        </mxCell>
        <mxCell id="2Tk2G13kBau0TGF2Ed2G-14" value="Check shopID from URL" style="rounded=0;whiteSpace=wrap;html=1;fillColor=#d5e8d4;strokeColor=#82b366;" vertex="1" parent="1">
          <mxGeometry x="540" y="200" width="120" height="60" as="geometry" />
        </mxCell>
        <mxCell id="2Tk2G13kBau0TGF2Ed2G-15" value="If shopID showed" style="rhombus;whiteSpace=wrap;html=1;fillColor=#fff2cc;strokeColor=#d6b656;" vertex="1" parent="1">
          <mxGeometry x="560" y="300" width="80" height="80" as="geometry" />
        </mxCell>
        <mxCell id="2Tk2G13kBau0TGF2Ed2G-21" value="" style="edgeStyle=orthogonalEdgeStyle;rounded=0;orthogonalLoop=1;jettySize=auto;html=1;fontSize=12;" edge="1" parent="1" source="2Tk2G13kBau0TGF2Ed2G-17" target="2Tk2G13kBau0TGF2Ed2G-20">
          <mxGeometry relative="1" as="geometry" />
        </mxCell>
        <mxCell id="2Tk2G13kBau0TGF2Ed2G-17" value="Check ShopID&lt;br&gt;from RDB" style="rounded=0;whiteSpace=wrap;html=1;fillColor=#d5e8d4;strokeColor=#82b366;" vertex="1" parent="1">
          <mxGeometry x="330" y="607.5" width="120" height="60" as="geometry" />
        </mxCell>
        <mxCell id="2Tk2G13kBau0TGF2Ed2G-23" value="YES" style="edgeStyle=orthogonalEdgeStyle;rounded=0;orthogonalLoop=1;jettySize=auto;html=1;fontSize=12;" edge="1" parent="1" source="2Tk2G13kBau0TGF2Ed2G-20" target="2Tk2G13kBau0TGF2Ed2G-22">
          <mxGeometry relative="1" as="geometry" />
        </mxCell>
        <mxCell id="2Tk2G13kBau0TGF2Ed2G-27" value="NO" style="edgeStyle=orthogonalEdgeStyle;rounded=0;orthogonalLoop=1;jettySize=auto;html=1;fontSize=12;" edge="1" parent="1" source="2Tk2G13kBau0TGF2Ed2G-20" target="2Tk2G13kBau0TGF2Ed2G-26">
          <mxGeometry relative="1" as="geometry" />
        </mxCell>
        <mxCell id="2Tk2G13kBau0TGF2Ed2G-20" value="If ShopID" style="rhombus;whiteSpace=wrap;html=1;fillColor=#fff2cc;strokeColor=#d6b656;" vertex="1" parent="1">
          <mxGeometry x="490" y="597.5" width="80" height="80" as="geometry" />
        </mxCell>
        <mxCell id="2Tk2G13kBau0TGF2Ed2G-31" value="" style="edgeStyle=orthogonalEdgeStyle;rounded=0;orthogonalLoop=1;jettySize=auto;html=1;fontSize=12;" edge="1" parent="1" source="2Tk2G13kBau0TGF2Ed2G-22" target="2Tk2G13kBau0TGF2Ed2G-30">
          <mxGeometry relative="1" as="geometry" />
        </mxCell>
        <mxCell id="2Tk2G13kBau0TGF2Ed2G-22" value="Fetch ShopNAME" style="rounded=0;whiteSpace=wrap;html=1;fillColor=#d5e8d4;strokeColor=#82b366;" vertex="1" parent="1">
          <mxGeometry x="620" y="607.5" width="120" height="60" as="geometry" />
        </mxCell>
        <mxCell id="2Tk2G13kBau0TGF2Ed2G-29" value="" style="edgeStyle=orthogonalEdgeStyle;rounded=0;orthogonalLoop=1;jettySize=auto;html=1;fontSize=12;" edge="1" parent="1" source="2Tk2G13kBau0TGF2Ed2G-26" target="2Tk2G13kBau0TGF2Ed2G-28">
          <mxGeometry relative="1" as="geometry" />
        </mxCell>
        <mxCell id="2Tk2G13kBau0TGF2Ed2G-26" value="Generate AuthenLINK" style="rounded=0;whiteSpace=wrap;html=1;fillColor=#d5e8d4;strokeColor=#82b366;" vertex="1" parent="1">
          <mxGeometry x="470" y="720" width="120" height="60" as="geometry" />
        </mxCell>
        <mxCell id="2Tk2G13kBau0TGF2Ed2G-35" value="" style="edgeStyle=orthogonalEdgeStyle;rounded=0;orthogonalLoop=1;jettySize=auto;html=1;fontSize=12;" edge="1" parent="1" source="2Tk2G13kBau0TGF2Ed2G-28" target="2Tk2G13kBau0TGF2Ed2G-34">
          <mxGeometry relative="1" as="geometry" />
        </mxCell>
        <mxCell id="2Tk2G13kBau0TGF2Ed2G-28" value="Display AuthenLINK" style="rounded=0;whiteSpace=wrap;html=1;fillColor=#d5e8d4;strokeColor=#82b366;" vertex="1" parent="1">
          <mxGeometry x="470" y="820" width="120" height="60" as="geometry" />
        </mxCell>
        <mxCell id="2Tk2G13kBau0TGF2Ed2G-33" value="" style="edgeStyle=orthogonalEdgeStyle;rounded=0;orthogonalLoop=1;jettySize=auto;html=1;fontSize=12;" edge="1" parent="1" source="2Tk2G13kBau0TGF2Ed2G-30" target="2Tk2G13kBau0TGF2Ed2G-32">
          <mxGeometry relative="1" as="geometry">
            <Array as="points">
              <mxPoint x="680" y="950" />
            </Array>
          </mxGeometry>
        </mxCell>
        <mxCell id="2Tk2G13kBau0TGF2Ed2G-30" value="Display ShopNAME" style="rounded=0;whiteSpace=wrap;html=1;fillColor=#d5e8d4;strokeColor=#82b366;" vertex="1" parent="1">
          <mxGeometry x="620" y="720" width="120" height="60" as="geometry" />
        </mxCell>
        <mxCell id="2Tk2G13kBau0TGF2Ed2G-32" value="&lt;b&gt;End w/ True&lt;/b&gt;" style="rounded=1;whiteSpace=wrap;html=1;fontSize=12;fillColor=#dae8fc;strokeColor=#6c8ebf;" vertex="1" parent="1">
          <mxGeometry x="490" y="920" width="120" height="60" as="geometry" />
        </mxCell>
        <mxCell id="2Tk2G13kBau0TGF2Ed2G-34" value="&lt;b&gt;End w/ False&lt;/b&gt;" style="rounded=1;whiteSpace=wrap;html=1;fontSize=12;fillColor=#f8cecc;strokeColor=#b85450;" vertex="1" parent="1">
          <mxGeometry x="370" y="920" width="120" height="60" as="geometry" />
        </mxCell>
        <mxCell id="2Tk2G13kBau0TGF2Ed2G-39" value="Write shopID to RDB" style="rounded=0;whiteSpace=wrap;html=1;fillColor=#d5e8d4;strokeColor=#82b366;" vertex="1" parent="1">
          <mxGeometry x="690" y="310" width="120" height="60" as="geometry" />
        </mxCell>
      </root>
    </mxGraphModel>
  </diagram>
</mxfile>
